<svg xmlns="http://www.w3.org/2000/svg" version="1.1" xmlns:xlink="http://www.w3.org/1999/xlink" xmlns:svgjs="http://svgjs.com/svgjs" width="1440" height="560" preserveAspectRatio="none" viewBox="0 0 1440 560"><g mask="url(&quot;#SvgjsMask1173&quot;)" fill="none"><rect width="1440" height="560" x="0" y="0" fill="url(#SvgjsLinearGradient1174)"></rect><path d="M640.4761488890477 74.73635009826589L733.3426593507278 41.035898046879524 668.1659651343325-15.621337850136428z" fill="rgba(28, 83, 142, 0.4)" class="triangle-float2"></path><path d="M-5.26 221.56 a100.2 100.2 0 1 0 200.4 0 a100.2 100.2 0 1 0 -200.4 0z" fill="rgba(28, 83, 142, 0.4)" class="triangle-float1"></path><path d="M537.3522833844697 296.30140766026517L514.9461416830333 386.1675335904888 604.812267613257 408.5736752919252 627.2184093146933 318.7075493617016z" fill="rgba(28, 83, 142, 0.4)" class="triangle-float3"></path><path d="M193.06972372945657 456.48676546969193L307.4526452876706 349.82296552015646 200.7888453381351 235.44004396194248 86.40592377992112 342.10384391147795z" fill="rgba(28, 83, 142, 0.4)" class="triangle-float1"></path><path d="M865.7909021735843-63.28919622671628L833.7098865334164 56.438784100802444 953.4378668609351 88.51979974097043 985.518882501103-31.208180586548295z" fill="rgba(28, 83, 142, 0.4)" class="triangle-float1"></path><path d="M496.89 414.08 a160.25 160.25 0 1 0 320.5 0 a160.25 160.25 0 1 0 -320.5 0z" fill="rgba(28, 83, 142, 0.4)" class="triangle-float3"></path><path d="M1495.342,769.439C1547.505,766.199,1591.988,736.5,1619.489,692.057C1648.765,644.744,1666.836,585.613,1638.844,537.53C1610.974,489.657,1550.734,479.349,1495.342,478.805C1438.672,478.248,1378.363,487.543,1346.871,534.661C1312.176,586.572,1307.892,656.567,1341.264,709.338C1372.845,759.276,1436.37,773.102,1495.342,769.439" fill="rgba(28, 83, 142, 0.4)" class="triangle-float3"></path><path d="M1020.82 243.97 a142.96 142.96 0 1 0 285.92 0 a142.96 142.96 0 1 0 -285.92 0z" fill="rgba(28, 83, 142, 0.4)" class="triangle-float2"></path><path d="M27.24369281901702 428.1407140520783L125.0088001011436 434.9771163236327 131.84520237269797 337.2120090415061 34.0800950905714 330.37560676995173z" fill="rgba(28, 83, 142, 0.4)" class="triangle-float1"></path></g><defs><mask id="SvgjsMask1173"><rect width="1440" height="560" fill="#ffffff"></rect></mask><linearGradient x1="15.28%" y1="-39.29%" x2="84.72%" y2="139.29%" gradientUnits="userSpaceOnUse" id="SvgjsLinearGradient1174"><stop stop-color="#0e2a47" offset="0"></stop><stop stop-color="rgba(13, 13, 13, 1)" offset="1"></stop></linearGradient><style>
            @keyframes float1 {
                0%{transform: translate(0, 0)}
                50%{transform: translate(-10px, 0)}
                100%{transform: translate(0, 0)}
            }

            .triangle-float1 {
                animation: float1 5s infinite;
            }

            @keyframes float2 {
                0%{transform: translate(0, 0)}
                50%{transform: translate(-5px, -5px)}
                100%{transform: translate(0, 0)}
            }

            .triangle-float2 {
                animation: float2 4s infinite;
            }

            @keyframes float3 {
                0%{transform: translate(0, 0)}
                50%{transform: translate(0, -10px)}
                100%{transform: translate(0, 0)}
            }

            .triangle-float3 {
                animation: float3 6s infinite;
            }
        </style></defs></svg>